<?xml version="1.0" standalone="no"?>
<!DOCTYPE svg PUBLIC "-//W3C//DTD SVG 1.1//EN" "http://www.w3.org/Graphics/SVG/1.1/DTD/svg11.dtd">
<svg xmlns="http://www.w3.org/2000/svg">
<metadata>Copyright (C) 2016 by original authors @ fontello.com</metadata>
<defs>
<font id="fontello" horiz-adv-x="1000" >
<font-face font-family="fontello" font-weight="400" font-stretch="normal" units-per-em="1000" ascent="850" descent="-150" />
<missing-glyph horiz-adv-x="1000" />
<glyph glyph-name="top" unicode="&#xe800;" d="M946 210l-434 359c-7 5-16 5-23 0l-435-359c-10-6-13-20-7-30 6-10 20-13 30-7l423 352 423-352c10-6 24-3 30 7 2 4 4 8 4 12 0 7-4 14-11 18z" horiz-adv-x="1000" />

<glyph glyph-name="left" unicode="&#xe801;" d="M639-115c3 0 7 1 11 4 10 6 13 19 7 30l-352 423 352 423c6 10 3 24-7 30-10 6-23 3-30-7l-359-434c-4-8-4-17 0-24l359-435c4-6 11-10 19-10z" horiz-adv-x="1000" />

<glyph glyph-name="right" unicode="&#xe802;" d="M298-105l359 435c4 7 4 16 0 24l-359 434c-7 10-20 13-30 7-10-6-13-20-7-30l352-423-352-423c-6-11-3-24 7-30 3-3 7-4 11-4 7 0 14 4 19 10z" horiz-adv-x="1000" />

<glyph glyph-name="bottom" unicode="&#xe803;" d="M957 428c0 3-2 7-4 11-6 10-20 13-30 7l-423-352-423 352c-10 6-24 3-30-7-6-10-3-23 7-30l435-359c7-4 16-4 23 0l434 359c7 4 11 11 11 19z" horiz-adv-x="1000" />

<glyph glyph-name="gengduo" unicode="&#xe804;" d="M908 350l-816 343c0 0 142-231 147-343 4-112-147-343-147-343l816 343z" horiz-adv-x="1000" />

<glyph glyph-name="shouqi" unicode="&#xe805;" d="M28-25c-3 0-9 0-9 3-6 6-6 16 0 22l465 481c4 3 7 7 13 7 3 0 9-4 12-4l482-481c6-6 6-16 0-22s-16-6-22 0l-475 472-456-472c-4-3-7-6-10-6z m0 331c-3 0-9 0-9 3-6 7-6 16 0 22l465 485c4 3 7 3 10 6 3 0 9-3 12-3l482-481c6-7 6-16 0-22-7-7-16-7-22 0l-472 468-456-471c-4-4-7-7-10-7z" horiz-adv-x="1000" />

<glyph glyph-name="phone" unicode="&#xe806;" d="M662 127c-50-51-175-7-284 101-108 109-143 241-101 284l53 53-216 216c-94-94-114-235-59-349l-3-1c60-134 96-212 206-323 110-110 189-146 323-206l1 3c114-55 255-36 349 59l-216 216-53-53z m-308 606l-72 72c-44 45-96 35-142-1l213-213c36 46 46 97 1 142z m601-601l-72 72c-45 45-96 35-142-1l213-213c36 46 46 98 1 142z" horiz-adv-x="1000" />

<glyph glyph-name="heart" unicode="&#xe807;" d="M498 17c0 0-362 197-362 464 0 102 102 185 202 185 77 0 136-48 160-115 0 0 0 0 0 0s1 0 1 0c24 67 83 115 159 115 101 0 203-83 203-185 0-267-363-464-363-464z m2-57c0 0-436 236-436 557 0 123 123 223 244 223 92 0 163-58 192-139 0 0 0 0 0 0s0 0 0 0c29 81 100 139 192 139 121 0 244-100 244-223 0-321-436-557-436-557z" horiz-adv-x="1000" />

<glyph glyph-name="no-dd" unicode="&#xe808;" d="M141 460c-8 0-15-6-16-14 0-8 6-15 14-16 1 0 9 0 21 0 49 0 169 8 223 81 5 7 4 16-3 21-6 5-15 3-20-3-58-79-218-69-219-69l0 0z m0 0m710-30c8 1 14 8 14 16-1 8-8 14-16 14-2 0-161-10-219 69-5 6-14 8-21 3-6-5-7-14-3-21 55-73 175-81 224-81 12 0 20 0 21 0l0 0z m0 0m-126 163v106l61-106h15 15v147h-14-15v-103l-59 103h-16-16v-147h14 15z m0 0m237 130c-13 14-30 21-52 21-22 0-39-7-52-21-12-14-19-33-19-57 0-24 7-43 19-57 13-13 30-20 52-20 22 0 39 7 52 20 13 14 19 33 19 57 0 24-6 43-19 57l0 0z m-22-95c-7-9-17-13-30-13-12 0-22 4-29 13-7 9-11 22-11 38 0 16 4 29 11 38 7 9 17 14 29 14 13 0 23-5 30-14 7-9 10-22 10-38 0-16-3-29-10-38l0 0z m0 0m4-73c-8 0-15-6-15-14v-424c0-16-12-29-28-30-1 3-3 6-5 9 0 1 0 1 0 1-2 2-3 4-4 6-1 0-2 1-2 2 0 0-1 0-1 1-2 2-4 4-7 5-1 1-2 2-3 3-2 1-3 2-5 3-2 1-3 2-4 2 0 0-1 0-1 1-4 2-9 3-13 5-2 1-4 1-6 2-5 1-10 2-16 3-1 1-2 1-4 1-5 0-11 1-17 1-1 0-2 0-3 0-8 0-15 0-23-1 0 0-1 0-1 0-33-5-70-17-108-43 0 0-1 0-1-1h-325c-1 1-2 1-3 2-8 5-15 10-23 14-1 1-2 1-4 2-8 4-17 8-25 11-1 1-2 1-4 2-17 6-33 10-48 12-2 1-3 1-5 1-7 1-14 1-20 1-2 0-4 0-6 0-5 0-10 0-15-1-1 0-3 0-5-1-5 0-10-2-15-3-2-1-4-1-6-2-5-1-9-3-14-5 0-1 0-1-1-1-1 0-2-1-3-2-2-1-4-2-6-4-1 0-2-1-3-1-2-2-4-4-6-6-1-1-1-1-1-1-1-1-2-2-2-2-2-2-3-4-4-6 0 0-1 0-1-1-2-3-3-6-4-9h-44c-17 0-30 14-30 30v562c0 16 13 30 30 30h543c8 0 15 6 15 14 0 9-7 15-15 15h-543c-33 0-60-27-60-59v-562c0-33 27-59 60-59h44c2-8 7-17 15-24 2-2 4-4 7-4 73-19 91-43 96-55 5-14-3-25-4-26-5-6-4-15 3-20 6-5 15-4 20 2 7 9 17 29 9 53-11 31-49 56-113 73-5 6-6 11-6 15 0 4 2 8 5 12 2 2 5 4 8 6 1 1 1 1 2 2 3 2 6 3 10 4 1 1 3 1 5 2 11 3 24 5 39 5 2-1 4-1 6-1 5 0 11-1 17-2 3-1 7-1 10-2 5-1 9-3 14-4 4-1 9-3 13-4 5-2 9-4 14-7 4-2 9-3 13-6 7-4 15-8 22-13 2-1 4-2 6-4h0c106-75 95-113 95-113-4-7-1-16 6-20 2-1 5-1 7-1 5 0 10 3 13 8 5 8 19 50-69 124h247c-89-74-74-116-70-124 3-6 8-9 14-9 2 0 4 1 6 2 8 4 11 12 7 19 0 1-13 39 95 115 10 7 19 12 28 17 4 2 7 3 10 5 6 2 12 5 17 7 4 1 8 3 12 4 5 1 10 3 15 4 3 1 7 2 10 2 5 1 11 2 16 2 2 0 5 0 7 1 15 0 28-2 39-5 2-1 4-2 6-2 3-1 6-3 8-4 1 0 2-1 3-2 3-2 5-4 7-6 4-3 6-7 6-11 0-5-2-10-7-16-64-17-102-42-112-73-8-24 1-44 8-53 5-6 14-7 21-2 6 5 7 14 2 20 0 1-8 12-3 26 4 12 22 36 96 55 3 0 5 2 7 4 7 7 12 16 15 24 32 1 58 27 58 59v424c0 8-7 14-15 14l0 0z m0 0m-581-5c7 0 14 0 21 1 8 2 13 9 11 18-1 8-9 13-17 11-18-3-39 0-47 6-7 4-16 2-21-5-4-7-1-16 6-21 11-7 29-10 47-10l0 0z m0 0m245 24c-8 2-15-3-17-11-2-8 3-16 11-18 4-1 9-1 14-1 17 0 37 5 53 13 7 4 10 13 6 20-3 7-12 10-20 6-16-8-37-11-47-9l0 0z m0 0m-117-252c-114 0-176-67-179-69-5-6-5-16 1-21 6-6 15-5 21 1 0 0 56 59 157 59 103 0 181-60 182-61 6-5 15-4 20 3 5 6 4 15-2 20-4 3-86 68-200 68l0 0z m0 0" horiz-adv-x="1000" />

<glyph glyph-name="no-yhq" unicode="&#xe809;" d="M921 765h-836c-34 0-61-27-61-60v-576c0-33 27-60 61-60h45c3-9 8-17 15-25 2-2 5-4 7-4 76-20 95-44 99-57 5-14-3-26-3-27-5-6-4-15 2-20 6-5 15-4 21 3 6 8 16 29 8 53-11 32-49 57-115 75-6 6-7 12-7 16v0c0 6 3 12 10 17 0 0 0 0 1 0 2 1 4 3 6 4 0 0 1 1 2 1 2 1 6 2 9 3 5 2 14 3 28 3 26 0 55-5 88-15 6-2 11-4 17-7 2-1 3-2 5-3 7-4 14-8 21-13 1-1 1-1 2-1 111-78 98-118 99-118l0 0c-4-7-1-16 6-19 2-2 4-2 6-2 6 0 11 3 13 8 5 8 20 52-72 127h257c-92-75-77-119-73-127 3-5 8-8 14-8 2 0 4 0 6 1 7 4 10 12 6 20 0 0-13 39 99 118 8 5 15 10 23 14 1 1 3 2 4 2 6 3 12 6 17 9 33 9 63 14 88 14 15 0 24-1 29-3 3-1 6-2 9-3 1-1 1-1 2-1 2-1 4-3 6-4l1 0c6-5 10-11 10-17 0 0 0 0 0 0 0-5-2-10-7-16-66-18-105-43-115-75-8-24 1-45 8-53 5-7 14-8 21-3 6 5 7 14 2 21 0 0-9 11-4 25 4 13 23 38 100 58 2 0 4 2 6 4 8 8 13 16 16 25 32 0 59 27 59 60v576c0 33-27 60-61 60l0 0 0 0z m-743-278h129c6-19 15-68-7-130l-1-4c-11-29-24-66 5-142 18-46 7-72-1-83h0c-1 0-2 1-3 1-18 7-35 11-50 13-2 0-3 0-4 0-8 1-15 2-22 2-2 0-3 0-5 0-5 0-11-1-16-2-2 0-3 0-5 0-1 0-2-1-3-1 5 24 8 60-7 84-17 25-21 104-1 164 9 25-1 71-9 98l0 0 0 0z m571-276c29 76 16 113 5 142l-1 4c-22 62-13 111-7 130h129c-8-27-19-73-10-99 21-59 17-138 0-164-16-23-12-59-7-83-2 0-3 1-4 1-1 0-2 0-3 0-6 1-12 1-19 1-1 0-1 1-2 1-24 0-52-5-81-17-7 12-18 38 0 84l0 0 0 0z m204-82c0-17-14-31-30-31-2 5-5 11-10 16 0 0-1 1-2 1 0 1 0 1 0 1-3 2-5 4-8 6 0 1-1 2-2 2-2 2-4 3-7 5-1 0-2 1-3 1 0 1 0 1-1 1 0 0 0 0 0 0-5 19-13 59-1 78 24 36 26 125 4 189-6 17 3 60 12 89h6c8 0 14 7 14 15 0 8-6 14-14 14h-17-159-12c-9 0-15-6-15-14 0-6 3-11 8-13-7-26-14-77 9-141l2-5c9-26 20-55-5-121-21-53-10-88 1-107-10-5-20-11-30-17l0 0h-334c0 0-1 1-2 1-8 6-16 11-24 15-1 0-2 1-3 2 11 18 22 53 1 106-25 66-15 95-5 121l1 5c23 64 16 115 10 141 4 2 8 7 8 13 0 8-7 14-15 14h-12-160-16c-8 0-14-6-14-14s6-15 14-15h6c9-29 18-71 12-89-22-63-20-153 4-189 12-19 4-59-1-78-1 0-1 0-1 0-2-1-3-2-4-2-2-2-4-3-6-4-1-1-2-2-3-2-2-2-5-4-7-6l-1-1c0-1-1-2-1-2-2-2-4-4-5-7 0 0 0 0 0 0-2-3-4-6-5-9h-45c-18 0-32 14-32 31v576c0 17 14 32 32 32h836c18 0 32-15 32-32l0-576 0 0 0 0z m0 0m-481 426c0 8-6 14-14 14-50 0-91 30-111 45-5 3-9 6-11 8-7 4-16 1-20-6-4-6-2-15 5-19 2-2 5-4 9-6 22-17 69-51 128-51 8 0 14 7 14 15l0 0 0 0z m0 0m208 67c-2-2-6-5-11-8-20-15-61-45-111-45-8 0-14-6-14-14s6-15 14-15c59 0 106 34 129 51 3 2 6 4 8 6 7 4 9 13 5 20-4 6-13 9-20 5l0 0 0 0z m0 0m-73-395l-98 44c-4 2-9 2-13 0l-86-44c-7-4-10-13-6-20 3-7 12-10 19-6l80 41 92-41c2-1 4-2 6-2 5 0 11 3 13 9 3 7 0 16-7 19l0 0 0 0z m0 0" horiz-adv-x="1000" />

<glyph glyph-name="member" unicode="&#xe80a;" d="M695 239c-9-11-7-27 4-36 82-64 130-161 130-266 0-14 11-26 25-26 14 0 25 12 25 26 0 122-54 233-149 307-10 9-27 6-35-5z m-548-328c14 0 25 12 25 26 0 185 147 335 328 335 140 0 253 115 253 257 0 142-113 257-253 257s-252-115-252-257c0-94 51-181 132-226-153-52-259-201-259-366 0-14 12-26 26-26z m353 824c112 0 202-93 202-206 0-113-90-206-202-206-111 0-201 93-201 206 0 113 90 206 201 206z" horiz-adv-x="1000" />

<glyph glyph-name="qian" unicode="&#xe80b;" d="M61 113m597 597l-107-198c-29-54-46-89-52-107l-3 0c-18 43-71 144-159 305l-101 0 188-323-155 0 0-71 181 0 0-98-181 0 0-73 181 0 0-142 90 0 0 142 174 0 0 73-174 0 0 98 174 0 0 71-149 0 189 323-96 0z m277-597" horiz-adv-x="1000" />

<glyph glyph-name="use" unicode="&#xe80c;" d="M446 745c-14 8-29-2-44-4 1-1 1-4 1-5 14 4 29 5 43 9l0 0z m0 0m56 9c-10-3-19 0-29-2 5-8 15-4 22-3 11 0 22-2 33-1 20-3 40-5 59-10-1 2-3 5-4 7-6 1-12 3-18 4l1-2c-6 2-11 2-17 3-6 3-11 3-15-2-2 4-5 5-10 4-3 1-7 3-8-3-5 2-9 6-14 5l0 0z m0 0m-124-21c-6 1-8-1-5-6 6 0 8 2 5 6l0 0z m0 0m-10-6c-4-1-8-2-12-3-7-4-14-8-22-7-9-2-23-5-21-16 1 1 3 4 4 5 5 1 10 10 15 3l1 2c11 6 24 9 35 16l0 0z m0 0m-57-22c-10-5-21-8-25-19-2 1-7 3-9 4l3-6c-9 2-15-5-21-10-16-12-32-24-45-39-9-8-18-18-26-28-5-5-4-14-12-15-5-6-8-13-11-21 2 0 5 1 6 1l0 4c2 2 4 5 6 7 4 6 11 12 9 20 3 0 6-3 8 0 18 23 39 42 61 60l-3 3c9-2 14 6 15 13 7-6 14 4 20 6 8 4 15 10 23 15 0 1 0 4 1 5l0 0z m0 0m294 35c-4 1-7-1-8-5 5 0 18 7 14-4 7-2 13-3 20-2 1-1 2-3 3-4 10-5 20-9 31-12l-4-6c1 1 3 3 4 5 7-3 12-7 20-8 2-2 4-4 7-7 1 2 3 6 4 7-10 5-20 10-30 14l1-7c-3 3-6 7-8 10-17 8-35 15-54 19l0 0z m0 0m101-44c-4 5-7 4-9 0 4-4 7-4 9 0l0 0z m0 0m7-1c-1-1-5-3-7-4 3-3 6-5 9-8 1 1 3 3 4 4-2 3-4 5-6 8l0 0z m0 0m14-16c-2 1-5 3-7 4 5-5 10-11 18-10-2 1-6 5-8 7-1-1-2-1-3-1l0 0z m0 0m-572-116c-5-8-2-22-13-23 1-1 3-2 5-2 4 5 8 10 12 15-1 2-3 7-4 10l0 0z m0 0m619 85c-6 5-12 10-18 15-1-16 19-18 22-33 3 1 7 2 11 3-4 1-12 0-11 6 0 1 2 3 2 4-1-1-5-2-6-2 0 2 0 5 0 7l0 0z m0 0m-634-120c-8-1-7-11-10-15l-2-2c-4-7-2-15 0-22 2 6 4 12 7 17l1 2c1 7 7 14 4 20l0 0z m0 0m655 99c-4 0-7 0-11 0 3-2 6-4 10-7l0-3c1 0 4 0 5 0 3-11 12-18 18-27 10-12 16-26 28-36 3-15 13-28 19-42 2-1 6-1 7-2-6 15-12 29-22 41-1 3-2 7-4 10-14 24-31 46-50 66l0 0z m0 0m-682-181c5 14 11 29 7 44-4-11-7-22-10-33-7-22-11-46-13-69 2 2 5 4 7 6 2 18 6 35 9 52l0 0z m0 0m-9-55c-2-1-5-2-7-3-2-29-3-59 2-88 2-14 2-29 8-43 1-11 4-22 7-32 8 3 6 9 0 13 0 7 1 15-3 22-5 25-7 50-14 75 1-1 4-1 6-2-2 15-1 30-1 45 1 4 2 8 2 13l0 0z m0 0m768 118c-1-1-5-1-7-1 7-14 13-27 16-42 2 1 4 3 5 4-4 13-10 25-14 39l0 0z m0 0m14-46l-1 0c0-6 0-12 3-18 0-12 5-23 6-34 3-14 2-29 5-43 0-3 0-10 0-14 8 1 6 9 6 14-1 8-2 14-3 21-2 4-3 8-5 11 2 0 4 1 5 1 0 3-1 5-2 8-1 2-3 5-3 7-2 2-4 7-5 9 1-1 5-2 6-3l1 1c-2 5-3 10-3 15-1-3-2-8-3-11-2 5-3 10-2 16 1 7-4 13-5 20l0 0z m0 0m-763-251c-1 5-1 11-4 16-4-14 5-27 9-41 1 2 4 4 5 5 0-5-2-11 1-16 27-58 68-109 119-148 0 3 1 6 1 9-12 8-22 18-33 28l-2-3c-1 6-5 10-9 14-36 38-65 84-83 134l-4-4c0 2 0 4 0 6l0 0z m0 0m781 137c-9-3-5-15-6-22l7-3c0 8 0 16-1 25l0 0z m0 0m-1-27c-2 1-6 1-8 2 2-2 5-5 7-7-9-6-6-18-8-27-1-14-7-27-6-40-5-5-5-13-8-19-2-8-7-16-6-25-9-14-14-30-23-45l3-3c-11-4-14-18-20-28-9-11-18-23-26-35-2-2-4-3-6-5 0-3 1-8 1-10 6 8 15 15 13 26 2-1 5-2 7-3 8 15 21 27 26 44 5 3 6 9 8 14 9 11 13 25 19 38 3 5 4 11 2 17l5-2c3 13 8 24 9 37 2 5 4 9 4 13-6 5-4 9 2 10 3 16 6 32 5 48l0 0z m0 0m-574-332c-24 10-46 24-67 40 0-2 1-8 1-10 12-8 23-15 35-22 11-6 22-14 36-16l-4-3c4 0 8 1 12 1 1-7 10-7 15-10 35-14 72-21 109-25-2 2-4 6-6 7-10 2-21 4-32 4 0-1-2-2-3-2-6 8-17 6-25 9-18 5-35 10-52 18l-5-4 2 6c-3 1-7 2-9 3l0-6c-2 3-5 6-7 10l0 0z m0 0m455 80c-4-10-15-13-22-20-41-39-92-64-145-83-40-10-82-18-124-16-8-1-19 3-25-4l8 2 0-5c6 0 13-1 16 6 6-3 12-7 19-6 13 1 27 0 39 5 1 0 3-1 4-2 28 4 55 12 81 21 7 3 15 4 21 9 7 1 13 3 19 6 33 17 65 38 93 63 8 6 18 12 16 24l0 0z m0 0m-284-204c-65 0-128 13-188 38-57 25-109 59-153 104-44 44-79 96-103 153-26 60-38 123-38 188 0 65 12 128 38 188 24 57 59 109 103 153 44 44 96 79 153 103 60 26 123 38 188 38 65 0 128-12 188-38 57-24 109-59 153-103 45-44 79-96 104-153 25-60 38-123 38-188 0-65-13-128-38-188-25-57-59-109-104-153-44-45-96-79-153-104-60-25-123-38-188-38l0 0z m0 926c-244 0-443-199-443-443 0-244 199-443 443-443 244 0 443 199 443 443 0 244-199 443-443 443l0 0z m0 0m-243-533l13 8 13-21 91 56-24 40-110-68-7 11 123 76 44-72-13-7-6 9-91-56 27-45c6-9 13-11 22-5l76 46c8 5 12 12 10 19-2 7-6 16-12 27 5 1 11 2 16 4 5-12 9-21 11-28 4-14-1-25-15-33l-81-50c-16-10-28-6-38 10l-49 79 0 0z m0 0m133 135c12-3 25-8 40-15-3-5-5-9-7-14-14 7-26 13-38 17l5 12 0 0z m130-103l41 25 46 30c1-5 1-10 2-15l-44-28-40-23c-17-11-34-13-49-7-2-4-4-14-6-30l-14 9c3 12 6 22 8 28l-32 53-18-11-6 11 29 18 41-66c13-5 27-3 42 6l0 0z m-83 93l66 40-18 29 12 8 18-29 26 16 7-11-26-17 39-63c8-13 6-24-7-31-7-4-14-9-23-14-3 3-7 7-11 12 9 4 16 8 23 13 7 4 8 9 3 16l-37 60-65-40-7 11 0 0z m24-26l5 13c20-8 35-13 46-18l-5-14c-17 7-32 14-46 19l0 0z m0 0m132 22l14 8-43 71-12-8-7 11 13 7-12 19 12 7 11-19 32 20-12 19 11 7 12-19 13 7 6-10-12-8 43-70 12 7 6-10-81-50-6 11 0 0z m-7 69l32 19-11 17-31-19 10-17 0 0z m16-27l32 20-10 17-32-20 10-17 0 0z m17-27l32 20-11 17-32-20 11-17 0 0z m8-13l14-2c-4-17-7-32-11-45-4 1-8 2-13 3 4 15 8 29 10 44l0 0z m-4 148l54 33 76-124c8-12 6-21-6-28-5-4-11-7-17-10-2 3-5 7-9 11 8 4 14 6 17 8 6 4 7 8 3 14l-20 32-32-20c12-23 17-46 14-68-5 1-10 2-15 3 3 14 2 28-2 39-4 11-13 29-28 53l-35 57 0 0z m49 16l-31-19 18-30 32 19-19 30 0 0z m-21-159l3 12c10-1 20-2 30-4l-3-13c-9 2-19 4-30 5l0 0z m32 70l32 19-18 30-32-19c9-13 15-23 18-30l0 0z m0 0" horiz-adv-x="1000" />

<glyph glyph-name="address" unicode="&#xe80d;" d="M662 488c0 89-73 162-162 162s-162-73-162-162 72-162 162-162 162 72 162 162z m-288 0c0 69 56 126 126 126 69 0 126-57 126-126 0-70-57-126-126-126-70 0-126 56-126 126z m414 0c0 159-129 288-288 288s-288-129-288-288 288-505 288-505 288 346 288 505z m-288 252c139 0 252-113 252-252 0-140-252-451-252-451s-252 311-252 451c0 139 113 252 252 252z m127-641c-8-11-15-21-23-31 77-9 130-27 130-49 0-29-105-54-234-54-129 0-234 25-234 54 0 22 53 40 129 49-7 10-15 20-22 31-85-15-143-45-143-80 0-49 121-90 270-90s270 41 270 90c0 35-58 65-143 80z" horiz-adv-x="1000" />

<glyph glyph-name="see" unicode="&#xe80e;" d="M366 342c0 73 60 133 133 133s134-60 134-133-60-134-134-134-133 60-133 134z m123 325c-315 0-485-325-485-325s221-325 499-325 492 328 492 328-191 322-506 322z m10-563c-131 0-237 107-237 238s106 237 237 237 238-106 238-237-106-238-238-238z" horiz-adv-x="1000" />

<glyph glyph-name="close" unicode="&#xe80f;" d="M535 350l261 261c10 9 10 25 0 35-10 10-26 10-35 0l-261-261-261 261c-9 10-25 10-35 0-10-10-10-26 0-35l261-261-261-261c-10-9-10-25 0-35 5-5 11-7 18-7s13 2 17 7l261 261 261-261c5-5 11-7 17-7s13 2 18 7c10 10 10 26 0 35l-261 261z" horiz-adv-x="1000" />

<glyph glyph-name="code" unicode="&#xe810;" d="M494 343c53-50 55-132 5-185-51-52-134-54-187-4-52 50-54 133-4 185 50 52 134 54 186 4l0 0z m-157-32c-34-36-33-93 3-128 37-34 95-33 129 3 35 36 34 93-3 128-36 34-94 33-129-3l0 0z m193 200l94 98c-24 23-25 61-2 85s62 25 86 2l55 49c0 0 37 35 93-18 69-66 35-103 35-103l-229-238c59-108 44-245-46-339-34-35-75-60-118-74l-1 42c33 13 64 33 90 60 74 77 89 189 45 280l-21 36 228 237c0 0 32 30-10 66-39 34-63 3-63 3l-56-58-30 28c-8 8-21 7-28-1-8-8-8-20 0-28l30-28-145-150-36 20c-94 39-206 19-281-58-97-100-93-259 8-355 32-30 68-50 107-60l1-42c-49 12-96 36-136 73-117 111-121 295-9 412 90 93 228 114 339 61l0 0z m0 0" horiz-adv-x="1000" />

<glyph glyph-name="duihao" unicode="&#xe811;" d="M897 558l-497-494c-10-11-25-16-39-16-14 0-29 5-39 16l-218 217c-22 21-22 56 0 77 21 21 56 21 77 0l180-180 458 457c22 21 56 21 78 0 21-21 21-56 0-77z" horiz-adv-x="1000" />

<glyph glyph-name="left-1" unicode="&#xe812;" d="M656-41c-12 0-24 5-33 14l-344 344c-18 18-18 48 0 66l344 344c18 18 48 18 66 0 19-18 19-48 0-66l-310-311 310-311c19-18 19-48 0-66-9-9-21-14-33-14z" horiz-adv-x="1000" />

<glyph glyph-name="daojia" unicode="&#xe813;" d="M516 763l182-149 1 75 130 0 0-180 108-114-29-31-145 157 25 11 1 117-51 0 0-105-38 15-185 150-396-345-26 31 423 368z m-316-793l221 0 1 225 185 0 1-225 221 0 0 347-40 0 0-308-141 0 0 227-267 0 0-227-141 0 0 308-40 0 0-347 0 0z" horiz-adv-x="1000" />

<glyph glyph-name="daodian" unicode="&#xe814;" d="M845 329c-10 0-17-7-17-16l0-298-100 0 0 283c0 10-8 17-17 17l-233 0c-9 0-17-7-17-17l0-283-267 0 0 298c0 9-7 16-16 16s-17-7-17-16l0-315c0-9 8-16 17-16l300 0c9 0 16 7 16 16l0 284 200 0 0-284c0-9 8-16 17-16l133 0c10 0 17 7 17 16l0 315c0 9-7 16-16 16z m83 185c0 0 0 1 0 1 0 1-1 2-1 3 0 1 0 1 0 2l-67 200c0 0 0 1 0 1 0 1-1 2-2 3 0 1-1 2-1 2-1 1-2 2-3 2-1 1-2 2-3 2 0 0-1 1-2 1-1 0-3 0-4 0 0 0 0 1-1 1l-666 0c0 0-1-1-1-1-1 0-2 0-3 0-1 0-2-1-3-1-1 0-2-1-3-2-1 0-2-1-2-2-1 0-1-1-2-2-1-1-1-2-2-3 0 0 0-1 0-1l-67-200c0-1 0-2 0-2 0-1-1-2-1-3 0 0 1-1 1-1 0 0 0 0 0 0 0-82 67-149 149-149 59 0 109 33 134 82 25-49 75-82 133-82s109 33 133 82c25-49 76-82 134-82 82 0 149 67 150 149 0 0 0 0 0 0z m-150-116c-64 0-117 53-117 117 0 9-7 17-17 17s-16-8-16-17c0-64-53-117-117-117s-117 53-117 117c0 9-7 17-16 17s-17-8-17-17c0-64-52-117-117-117-63 0-115 51-116 115l62 185 642 0 62-185c-1-64-53-115-116-115z m0 234l-533 0c-10 0-17-8-17-17s7-17 17-17l533 0c9 0 17 8 17 17s-8 17-17 17z" horiz-adv-x="1000" />

<glyph glyph-name="rili" unicode="&#xe815;" d="M377 735l246 0 0-29-246 0 0 29z m554-29l0 29-185 0 0-29 155 0 0-143-803 0 0 143 156 0 0 29-185 0 0-29 0 0 0-761 0 0 0-30 862 0 0 30 0 0 0 761 0 0z m-833-761l0 588 803 0 0-588-803 0z m202 842l30 0 0-152-30 0 0 152z m371 0l29 0 0-152-29 0 0 152z m-371-463l0-33c23 14 43 29 58 44l0-241 35 0 0 300-21 0c-19-27-43-50-72-70z m378-100c-3 11-7 22-14 33-6 11-16 20-30 26-14 7-29 10-44 11-15 0-31-4-49-12 6 19 12 44 18 75l111 0 0 32-138 0c-19-93-30-143-33-150l30-4c9 13 21 21 36 25 14 3 27 3 39 0 12-4 21-11 29-21 7-11 11-24 12-39 1-15-2-29-7-41s-14-22-26-30c-12-7-28-9-48-6-20 4-34 21-42 53l-32-9c6-28 17-48 33-59 16-12 32-19 50-20 17-1 32 1 46 6 13 6 25 13 34 21 9 9 16 20 21 34 5 13 7 26 8 39 0 13-1 25-4 36z" horiz-adv-x="1000" />

<glyph glyph-name="success" unicode="&#xe816;" d="M843 780l-560 0c-50 0-91-41-91-90l0-457 40 0 0 457c0 28 23 51 51 51l560 0c29 0 52-23 52-51l0-616c0-28-23-51-52-51l-388 0 0-40 388 0c50 0 91 41 91 91l0 616c0 49-41 90-91 90z m-638-734l-119 115-25-25 144-141 208 212-25 24z m104 560l495 0 0-39-495 0 0 39z m0-195l495 0 0-40-495 0 0 40z m213-196l282 0 0-39-282 0 0 39z" horiz-adv-x="1000" />

<glyph glyph-name="menu" unicode="&#xe817;" d="M1000 656c0-5-4-8-9-8h-982c-5 0-9 3-9 8l0 0c0 5 4 9 9 9h982c5 0 9-4 9-9l0 0z m0-321c0-5-4-9-9-9h-982c-5 0-9 4-9 9l0 0c0 5 4 9 9 9h982c5 0 9-4 9-9l0 0z m0-287c0-5-4-9-9-9h-982c-5 0-9 4-9 9l0 0c0 4 4 8 9 8h982c5 0 9-4 9-8l0 0z m0 610c0-10-8-18-18-18h-964c-10 0-18 8-18 18l0 0c0 10 8 18 18 18h964c10 0 18-8 18-18l0 0z m0-323c0-10-8-18-18-18h-964c-10 0-18 8-18 18l0 0c0 10 8 18 18 18h964c10 0 18-8 18-18l0 0z m0-287c0-10-8-19-18-19h-964c-10 0-18 9-18 19l0 0c0 10 8 18 18 18h964c10 0 18-8 18-18l0 0z" horiz-adv-x="1000" />

<glyph glyph-name="naozhong" unicode="&#xe818;" d="M887 582l-96 97c-5 5-14 5-19 0l-20-20c-5-5-5-14 0-19l97-97c5-5 14-5 19 0l19 20c6 5 6 14 0 19z m-67-10l-39 39-33-33c-68 62-158 100-257 100-211 0-382-172-382-383s171-382 382-382c211 0 382 171 382 382 0 93-33 177-87 243l34 34z m-2-277c0-180-146-327-327-327-181 0-328 147-328 327s147 328 328 328c181 0 327-147 327-328z m-273 437l82 0 0 55-245 0 0-55 81 0 0-54 28 0 54 0 0 54z m150-241c-6 6-14 6-20 0l-135-135c-3-3-5-9-3-14-5 5-12 8-19 8l-55 0c-15 0-27-12-27-27l0-55c0-15 12-27 27-27l55 0c15 0 27 12 27 27l0 55c0 4-1 8-3 12l18-17c5-6 14-6 19 0l135 135c5 5 5 14 0 19l-19 19z m-177-209c0-8-6-14-14-14l-27 0c-7 0-14 6-14 14l0 27c0 8 7 14 14 14l27 0c8 0 14-6 14-14l0-27z" horiz-adv-x="1000" />

<glyph glyph-name="pwd" unicode="&#xe819;" d="M791 371l-541 0 0 145c0 127 123 229 250 229 126 0 228-123 228-249 0-12 10-21 21-21s21 9 21 21c0 149-121 291-270 291-149 0-292-122-292-271l0-145c-45 0-83-38-83-83l0-292c0-46 38-83 83-83l583 0c46 0 83 37 83 83l0 292c0 45-37 83-83 83z m41-375c0-23-18-41-41-41l-583 0c-23 0-41 18-41 41l0 292c0 23 18 41 41 41l583 0c23 0 41-18 41-41l0-292z m-332 250c-23 0-42-19-42-42 0-15 8-28 21-36l0-68c0-11 9-62 21-62 11 0 20 51 20 62l0 68c13 8 21 21 21 36 0 23-18 42-41 42z" horiz-adv-x="1000" />
</font>
</defs>
</svg>
